<svg width="528" height="450" viewBox="0 0 528 450" fill="none" xmlns="http://www.w3.org/2000/svg">
<g clip-path="url(#clip0_11_18)">
<path d="M526.888 449.751H1.77806C1.33343 449.751 0.888794 449.378 0.888794 448.757C0.888794 448.135 1.22227 447.762 1.77806 447.762H526.888C527.333 447.762 527.778 448.135 527.778 448.757C527.778 449.378 527.333 449.751 526.888 449.751Z" fill="#231F20"/>
<path d="M208.643 448.757C208.421 448.757 208.198 448.633 208.087 448.508L175.851 411.215L143.616 448.508C143.282 448.757 142.726 448.757 142.504 448.26C142.282 448.011 142.282 447.514 142.504 447.265L175.296 409.351C175.629 408.978 176.185 408.978 176.518 409.351L209.31 447.265C209.644 447.638 209.644 448.26 209.31 448.633C209.088 448.757 208.865 448.757 208.643 448.757Z" fill="#231F20"/>
<path d="M175.851 410.594C175.407 410.594 174.962 410.221 174.962 409.599V1.36741C174.962 0.870176 175.296 0.372936 175.74 0.248627C176.185 0.248627 176.63 0.621561 176.741 1.1188C176.741 1.24311 176.741 1.2431 176.741 1.36741V409.599C176.741 410.097 176.296 410.594 175.851 410.594Z" fill="#231F20"/>
<path d="M317.8 10.9392H33.9027V245.511H317.8V10.9392Z" fill="white"/>
<path d="M317.8 246.506H33.9027C33.4581 246.506 33.0134 246.133 33.0134 245.511V10.9392C33.0134 10.442 33.3469 10.0691 33.9027 9.94476H317.689C318.134 9.94476 318.467 10.3177 318.578 10.9392V245.511C318.578 246.133 318.245 246.506 317.8 246.506ZM34.792 244.641H317.022V11.9337H34.792V244.641Z" fill="#231F20"/>
<path d="M61.0253 99.8205C61.0253 132.762 84.9242 159.489 114.381 159.489C143.838 159.489 167.737 132.762 167.737 99.8205H114.381V40.1519C84.9242 40.1519 61.0253 66.8785 61.0253 99.8205Z" fill="#7C00FE"/>
<path d="M122.94 31.326V90.9945H176.296C176.296 58.0525 152.397 31.326 122.94 31.326Z" fill="#D1D3D4"/>
<path d="M105.155 229.848H68.584V265.773H105.155V229.848Z" fill="#7C00FE"/>
<path d="M88.5925 226.119H84.3685V233.329H88.5925V226.119Z" fill="#D1D3D4"/>
<path d="M86.4805 241.409H75.3647C74.92 241.409 74.4754 241.036 74.4754 240.414C74.4754 239.793 74.8089 239.42 75.3647 239.42H86.4805C86.9251 239.42 87.3697 239.793 87.3697 240.414C87.3697 241.036 86.9251 241.409 86.4805 241.409Z" fill="white"/>
<path d="M94.9285 249.116H75.3647C74.92 249.116 74.4754 248.743 74.4754 248.122C74.4754 247.5 74.8089 247.127 75.3647 247.127H94.9285C95.3731 247.127 95.8177 247.5 95.8177 248.122C95.8177 248.743 95.3731 249.116 94.9285 249.116Z" fill="white"/>
<path d="M99.5971 241.657H91.3714C90.9267 241.657 90.4821 241.285 90.4821 240.663C90.4821 240.041 90.8156 239.669 91.3714 239.669H99.4859C99.9305 239.669 100.375 240.041 100.375 240.663C100.375 241.285 100.042 241.657 99.5971 241.657Z" fill="white"/>
<path d="M55.5785 22.7486H23.3427V54.4475H55.5785V22.7486Z" fill="#7C00FE"/>
<path d="M40.9057 19.3923H37.1263V25.732H40.9057V19.3923Z" fill="#D1D3D4"/>
<path d="M50.1318 33.0663H29.2341C28.7895 33.0663 28.3448 32.6934 28.3448 32.0718C28.3448 31.4503 28.6783 31.0774 29.2341 31.0774H50.1318C50.5764 31.0774 51.0211 31.4503 51.0211 32.0718C51.0211 32.6934 50.5764 33.0663 50.1318 33.0663Z" fill="white"/>
<path d="M50.1318 39.779H29.2341C28.7895 39.779 28.3448 39.4061 28.3448 38.7845C28.3448 38.163 28.6783 37.7901 29.2341 37.7901H50.1318C50.5764 37.7901 51.0211 38.163 51.0211 38.7845C51.0211 39.4061 50.5764 39.779 50.1318 39.779Z" fill="white"/>
<path d="M42.5731 46.616H29.2341C28.7895 46.616 28.3448 46.2431 28.3448 45.6216C28.3448 45 28.6783 44.6271 29.2341 44.6271H42.5731C43.0177 44.6271 43.4623 45 43.4623 45.6216C43.4623 46.2431 43.1289 46.616 42.5731 46.616Z" fill="white"/>
<path d="M122.496 184.475H63.4707C63.0261 184.475 62.5815 184.102 62.5815 183.481C62.5815 182.859 62.915 182.486 63.4707 182.486H122.496C122.94 182.486 123.385 182.859 123.385 183.481C123.385 184.102 122.94 184.475 122.496 184.475Z" fill="#D1D3D4"/>
<path d="M144.727 184.475H133.5C133.056 184.475 132.611 184.102 132.611 183.481C132.611 182.859 132.945 182.486 133.5 182.486H144.727C145.172 182.486 145.617 182.859 145.617 183.481C145.617 184.102 145.172 184.475 144.727 184.475Z" fill="#D1D3D4"/>
<path d="M165.514 184.475H154.287C153.842 184.475 153.398 184.102 153.398 183.481C153.398 182.859 153.731 182.486 154.287 182.486H165.514C165.958 182.486 166.403 182.859 166.403 183.481C166.403 184.102 165.958 184.475 165.514 184.475Z" fill="#D1D3D4"/>
<path d="M149.952 199.89H62.915C62.4703 199.89 62.0257 199.517 62.0257 198.895C62.0257 198.273 62.3592 197.901 62.915 197.901H149.952C150.396 197.901 150.841 198.273 150.841 198.895C150.841 199.517 150.396 199.89 149.952 199.89Z" fill="#D1D3D4"/>
<path d="M91.4826 215.18H63.2485C62.8038 215.18 62.3592 214.807 62.3592 214.185C62.3592 213.564 62.6927 213.191 63.2485 213.191H91.4826C91.9272 213.191 92.3719 213.564 92.3719 214.185C92.3719 214.807 91.9272 215.18 91.4826 215.18Z" fill="#D1D3D4"/>
<path d="M159.289 214.682H108.934C108.49 214.682 108.045 214.309 108.045 213.688C108.045 213.066 108.379 212.693 108.934 212.693H159.289C159.734 212.693 160.178 213.066 160.178 213.688C160.178 214.309 159.734 214.682 159.289 214.682Z" fill="#D1D3D4"/>
<path d="M216.869 166.45H198.861V223.508H216.869V166.45Z" fill="#7C00FE"/>
<path d="M247.882 185.843H229.874V223.508H247.882V185.843Z" fill="#D1D3D4"/>
<path d="M278.895 174.779H260.887V223.508H278.895V174.779Z" fill="#D1D3D4"/>
<path d="M286.676 43.8812H192.747C192.303 43.8812 191.858 43.5083 191.858 42.8868C191.858 42.2652 192.192 41.8923 192.747 41.8923H286.676C287.121 41.8923 287.565 42.2652 287.565 42.8868C287.565 43.5083 287.232 43.8812 286.676 43.8812Z" fill="#D1D3D4"/>
<path d="M266.445 59.2956H194.193C193.748 59.2956 193.303 58.9227 193.303 58.3011C193.303 57.6796 193.637 57.3066 194.193 57.3066H266.445C266.89 57.3066 267.335 57.6796 267.335 58.3011C267.335 58.9227 266.89 59.2956 266.445 59.2956Z" fill="#D1D3D4"/>
<path d="M276.561 74.0884H192.747C192.303 74.0884 191.858 73.7155 191.858 73.0939C191.858 72.4724 192.192 72.0995 192.747 72.0995H276.561C277.005 72.0995 277.45 72.4724 277.45 73.0939C277.45 73.7155 277.005 74.0884 276.561 74.0884Z" fill="#D1D3D4"/>
<path d="M289.9 58.5497H276.561C276.116 58.5497 275.671 58.1768 275.671 57.5553C275.671 56.9337 276.005 56.5608 276.561 56.5608H289.9C290.344 56.5608 290.789 56.9337 290.789 57.5553C290.789 58.1768 290.455 58.5497 289.9 58.5497Z" fill="#D1D3D4"/>
<path d="M243.436 148.923H194.415C193.97 148.923 193.637 148.55 193.526 147.928V103.052C193.526 102.555 193.859 102.058 194.415 102.058C194.971 102.058 195.304 102.431 195.304 103.052V147.058H243.436C243.88 147.058 244.325 147.431 244.325 148.053C244.325 148.674 243.88 148.923 243.436 148.923Z" fill="#D1D3D4"/>
<path d="M194.415 148.923C194.193 148.923 193.97 148.798 193.859 148.674C193.526 148.301 193.526 147.68 193.859 147.307L214.423 122.693C214.646 122.445 214.868 122.32 215.09 122.445C215.313 122.445 215.535 122.693 215.757 122.942L220.092 130.649L234.098 113.494C234.321 113.122 234.876 112.997 235.321 113.37C235.654 113.619 235.766 114.24 235.432 114.738L235.321 114.862L220.648 132.887C220.426 133.135 220.203 133.26 219.981 133.135C219.759 133.135 219.537 133.011 219.314 132.638L214.979 124.931L195.082 148.674C194.859 148.798 194.637 148.923 194.415 148.923Z" fill="#D1D3D4"/>
<path d="M292.901 224.006H186.078C185.633 224.006 185.189 223.633 185.189 223.011C185.189 222.389 185.522 222.017 186.078 222.017H292.901C293.346 222.017 293.79 222.389 293.79 223.011C293.79 223.633 293.346 224.006 292.901 224.006Z" fill="#D1D3D4"/>
<path d="M358.818 433.964L355.594 447.514L304.684 426.878L322.802 421.906" fill="white"/>
<path d="M355.594 448.384C355.483 448.384 355.372 448.384 355.26 448.384L304.35 427.749C304.017 427.624 303.794 427.251 303.794 426.754C303.794 426.381 304.128 426.008 304.461 425.884L322.58 420.912C323.025 420.787 323.469 421.16 323.58 421.657C323.692 422.155 323.358 422.652 322.914 422.776L307.463 427.003L354.927 446.271L357.928 433.715C358.039 433.218 358.484 432.97 358.929 433.094C359.373 433.218 359.596 433.715 359.484 434.213L356.261 447.762C356.15 448.011 356.039 448.26 355.816 448.384C355.816 448.384 355.705 448.384 355.594 448.384Z" fill="#231F20"/>
<path d="M362.93 197.279C362.93 197.279 332.918 300.953 322.802 421.906L358.929 433.964L407.616 258.688L425.957 435.829L464.195 436.699C464.195 436.699 464.529 330.912 454.747 197.279C434.738 196.906 362.93 197.279 362.93 197.279Z" fill="#231F20"/>
<path d="M268.001 143.702C268.001 143.702 307.129 198.398 325.248 196.657C343.367 194.917 365.709 153.646 365.709 153.646L347.257 117.224C347.257 117.224 323.692 149.296 319.356 147.058C315.021 144.82 286.009 121.077 286.009 121.077" fill="white"/>
<path d="M324.47 197.652C305.795 197.652 269.002 146.561 267.446 144.323C267.112 143.95 267.223 143.329 267.557 142.956C267.89 142.583 268.446 142.707 268.78 143.08C269.224 143.577 307.796 197.403 325.248 195.663C341.699 194.047 362.263 158.122 364.82 153.522L347.146 118.715C341.032 126.92 325.025 147.928 319.69 147.928C319.468 147.928 319.245 147.928 319.023 147.804C314.688 145.566 286.676 122.818 285.453 121.823C285.009 121.575 284.897 120.953 285.231 120.58C285.453 120.083 286.009 119.959 286.342 120.331C286.342 120.331 286.454 120.331 286.454 120.456C286.787 120.704 315.466 144.075 319.69 146.312C321.468 147.182 332.251 136.119 346.59 116.726C346.812 116.478 347.035 116.354 347.257 116.354C347.479 116.354 347.813 116.602 347.924 116.851L366.376 153.273C366.487 153.522 366.487 153.895 366.376 154.268C362.263 161.602 357.817 168.564 352.815 175.276C342.255 189.447 332.918 197.03 325.248 197.776C325.025 197.652 324.692 197.652 324.47 197.652Z" fill="#231F20"/>
<path d="M449.967 134.627L474.088 123.564C465.529 103.052 455.858 90.9945 449.189 86.1464C440.63 78.1906 419.621 77.6934 400.279 76.8232C394.055 76.4503 387.83 77.0718 381.827 78.8121C359.262 85.7735 338.253 122.32 338.253 122.32L358.484 135.746C358.484 135.746 356.261 185.47 359.151 202.251C359.151 202.251 411.506 227.486 455.525 213.688C455.525 213.688 449.411 140.967 449.967 134.627Z" fill="#7C00FE"/>
<path d="M403.614 70.1105L400.613 86.395C400.613 86.395 403.837 97.2099 413.618 96.0912C419.51 95.3453 424.734 91.7403 427.847 86.1464L431.293 56.3122C431.293 56.3122 424.734 51.0912 428.847 34.3094C420.621 36.9199 412.062 36.9199 403.837 34.4337C403.837 34.4337 397.278 52.2099 397.501 60.663C397.612 68.9917 403.614 70.1105 403.614 70.1105Z" fill="white"/>
<path d="M412.173 97.0856C403.058 97.0856 399.835 86.8922 399.835 86.7679C399.835 86.6436 399.835 86.395 399.835 86.2707L402.614 70.9806C400.835 70.2348 396.834 67.8729 396.611 60.7873C396.5 52.3342 402.725 34.9309 403.058 34.3094C403.17 33.9364 403.614 33.6878 404.059 33.8121C412.062 36.174 420.621 36.174 428.625 33.6878C429.069 33.5635 429.514 33.8121 429.736 34.1851C429.847 34.3094 429.847 34.558 429.736 34.8066C425.846 50.5939 431.737 55.6906 431.848 55.6906C432.071 55.9392 432.182 56.1878 432.182 56.5608L428.736 86.395C428.736 86.5193 428.736 86.6436 428.625 86.7679C425.29 92.6105 419.843 96.3398 413.73 97.0856C413.174 96.9613 412.618 97.0856 412.173 97.0856ZM401.391 86.2707C401.947 87.7624 405.059 95.9668 413.396 95.0967C418.954 94.3508 423.845 90.9945 426.957 85.7735L430.292 56.6851C428.958 55.1933 424.623 49.4751 427.624 35.6768C419.954 37.79 411.951 37.6657 404.281 35.5525C403.058 39.0331 398.167 53.453 398.279 60.5386C398.39 67.9972 403.614 69.116 403.725 69.116C403.948 69.116 404.17 69.2403 404.281 69.4889C404.392 69.7375 404.503 69.9862 404.392 70.2348L401.391 86.2707Z" fill="#231F20"/>
<path d="M425.735 54.9447C426.179 53.5773 427.069 52.3342 428.291 51.5884C429.403 50.9668 430.626 50.4696 431.848 50.221C432.515 49.9724 433.182 49.9724 433.849 50.0967C434.294 50.221 434.738 50.4696 435.072 50.8425C436.072 51.5884 436.739 52.5829 437.073 53.826C437.184 54.8204 437.184 55.9392 436.85 56.8094C436.628 57.9282 436.184 58.9226 435.739 59.9171C433.627 63.895 428.958 65.2624 425.401 62.9005H425.29" fill="white"/>
<path d="M429.292 65.0138C427.735 65.0138 426.179 64.5166 424.845 63.6464C424.512 63.3978 424.289 62.7762 424.623 62.4033C424.845 62.0304 425.401 61.9061 425.735 62.1547C428.847 64.3922 432.96 63.2735 434.961 59.7928L435.072 59.6685C435.516 58.7983 435.85 57.8038 436.072 56.8094C436.295 55.9392 436.406 55.069 436.295 54.1989C436.072 53.2044 435.405 52.3342 434.627 51.7127C434.294 51.4641 433.96 51.2155 433.627 51.0911C433.071 50.9668 432.515 51.0911 431.959 51.2154C430.848 51.4641 429.736 51.837 428.736 52.4585C427.735 53.0801 426.957 54.1989 426.513 55.3177C426.29 55.8149 425.846 56.0635 425.401 55.8149C424.956 55.5663 424.734 55.069 424.956 54.5718C425.512 52.9558 426.513 51.5884 427.847 50.7182C429.069 49.9724 430.292 49.4751 431.626 49.2265C432.404 48.9779 433.293 48.9779 434.071 49.1022C434.627 49.3508 435.183 49.5994 435.628 49.9724C436.739 50.8425 437.517 52.0856 437.851 53.5773C437.962 54.6961 437.962 55.9392 437.628 57.058C437.406 58.1768 436.962 59.2956 436.406 60.4143C435.294 62.5276 433.404 64.1436 431.181 64.7652C430.625 65.0138 429.959 65.0138 429.292 65.0138Z" fill="#231F20"/>
<path d="M432.626 72.348C432.293 72.348 431.959 72.0994 431.848 71.6022C431.737 71.105 431.959 70.6077 432.404 70.4834C437.962 68.8674 442.631 64.8895 445.41 59.2956C449.634 50.9668 450.967 41.0221 449.189 31.6989C447.966 26.4779 446.521 24.9862 445.41 24.6133C444.298 24.4889 443.186 24.8619 442.408 25.732C442.075 26.105 441.519 26.105 441.186 25.732C440.963 25.4834 440.963 25.2348 440.963 24.9862C440.963 24.9862 441.519 18.3978 435.628 12.058C431.404 7.45855 417.398 1.61601 406.838 3.23203C401.391 4.1022 397.5 6.58838 395.166 10.8149C392.721 15.4144 392.054 19.6409 393.054 23.3702C394.722 29.337 400.057 32.1961 400.057 32.1961C400.502 32.4447 400.613 32.942 400.502 33.4392C400.279 33.9365 399.835 34.0608 399.39 33.9365C399.168 33.8121 393.276 30.7044 391.498 23.9917C390.275 19.6409 391.053 14.9171 393.832 9.94474C396.389 5.22098 400.724 2.36186 406.615 1.4917C418.065 -0.248632 432.404 5.96684 436.85 10.8149C440.074 14.0469 442.075 18.5221 442.631 23.3702C443.631 22.7486 444.743 22.6243 445.854 22.8729C448.077 23.4945 449.745 26.3536 450.856 31.326C452.746 41.2707 451.301 51.5884 446.855 60.4143C443.853 66.3812 438.74 70.732 432.849 72.4724L432.626 72.348Z" fill="#231F20"/>
<path d="M402.391 78.3149C405.837 79.3094 409.505 78.5635 412.507 76.2016C417.175 72.3481 417.175 69.7376 417.175 69.7376C417.175 69.7376 409.95 72.8453 403.948 70.4834L402.391 78.3149Z" fill="#231F20"/>
<path d="M405.504 79.6823C404.392 79.6823 403.281 79.558 402.169 79.1851C401.724 79.0608 401.502 78.5635 401.613 78.0663L403.17 70.2348C403.17 69.9862 403.392 69.7376 403.614 69.6133C403.836 69.4889 404.059 69.4889 404.281 69.4889C409.95 71.7265 416.842 68.7431 416.953 68.7431C417.175 68.6188 417.509 68.6188 417.731 68.8674C417.954 68.9917 418.065 69.3646 418.065 69.6133C418.065 69.8619 417.954 72.8453 413.063 76.9475C410.839 78.6878 408.172 79.6823 405.504 79.6823ZM403.392 77.5691C406.393 78.1906 409.506 77.4447 412.062 75.4558C413.618 74.337 414.841 72.8453 415.842 71.105C412.173 72.3481 408.283 72.4724 404.615 71.6022L403.392 77.5691Z" fill="#231F20"/>
<path d="M359.151 203.246C358.706 203.246 358.373 202.873 358.262 202.376C358.262 201.878 356.039 156.878 365.709 101.188C365.82 100.691 366.265 100.442 366.71 100.566C367.154 100.691 367.377 101.188 367.377 101.561C357.817 156.878 359.929 201.754 360.04 202.251C360.04 202.749 359.707 203.246 359.151 203.246C359.262 203.246 359.262 203.246 359.151 203.246Z" fill="#231F20"/>
<path d="M406.504 194.171C406.504 192.68 399.279 131.892 399.279 131.892L346.812 128.909L355.705 189.199L406.504 194.171Z" fill="#231F20"/>
<path d="M472.199 117.845C472.199 117.845 512.882 198.398 486.871 203.37C468.753 206.851 432.738 197.403 419.287 189.696C405.837 181.989 400.168 176.146 400.168 176.146C400.168 176.146 385.162 174.903 386.94 170.925C387.941 168.564 390.275 167.32 392.498 167.942C392.498 167.942 385.273 167.196 386.274 163.467C387.274 159.738 393.054 160.981 393.054 160.981C393.054 160.981 382.939 157.003 385.607 154.765C388.274 152.528 393.499 154.268 393.499 154.268C393.499 154.268 386.496 152.901 386.718 149.544C387.163 143.826 408.95 150.041 413.174 154.517C417.398 158.992 443.409 163.591 448.077 164.088L435.85 135" fill="white"/>
<path d="M477.868 204.986C458.526 204.986 430.626 197.279 418.954 190.442C406.838 183.481 401.169 178.135 399.946 177.017C397.389 176.768 387.941 175.773 386.385 172.541C386.051 171.92 386.051 171.05 386.385 170.304C386.829 169.185 387.607 168.191 388.608 167.569C387.607 167.196 386.718 166.45 386.051 165.58C385.607 164.834 385.384 163.84 385.607 162.97C386.051 161.229 387.385 159.986 388.941 159.738C386.718 158.619 384.606 157.003 384.384 155.511C384.273 154.765 384.606 154.019 385.162 153.646C385.94 153.025 386.829 152.652 387.719 152.528C386.607 151.782 385.94 150.539 385.94 149.047C386.051 147.804 386.829 146.809 387.941 146.436C393.165 144.199 409.839 149.171 413.841 153.398C417.509 157.251 439.296 161.478 446.855 162.472L435.183 134.876C435.072 134.378 435.294 133.881 435.628 133.633C435.961 133.508 436.406 133.633 436.628 134.006L448.855 163.094C448.967 163.343 448.967 163.715 448.744 164.088C448.522 164.337 448.3 164.461 447.966 164.461C443.631 163.964 417.064 159.489 412.507 154.641C408.95 150.912 392.943 146.064 388.386 148.052C387.496 148.425 387.496 148.923 387.496 149.047C387.385 150.539 389.942 151.782 392.054 152.403C392.61 152.528 393.054 152.652 393.61 152.776C394.055 152.901 394.388 153.398 394.277 153.895C394.166 154.392 393.721 154.765 393.276 154.641C393.054 154.641 392.498 154.517 391.72 154.268C390.164 153.895 387.496 153.771 386.051 155.014L385.94 155.138C385.94 156.008 389.497 158.122 393.276 159.613C393.721 159.738 393.943 160.359 393.721 160.856C393.61 161.229 393.165 161.478 392.832 161.478C392.832 161.478 387.719 160.483 387.052 163.343C386.941 163.715 387.052 164.088 387.163 164.461C387.83 165.58 390.053 166.326 391.72 166.575C392.054 166.575 392.387 166.699 392.61 166.699C393.054 166.823 393.277 167.32 393.165 167.818C393.054 168.191 392.721 168.564 392.276 168.439L391.498 168.315C389.831 168.191 388.163 169.185 387.496 170.925C387.385 171.05 387.385 171.174 387.496 171.423C388.386 173.163 395.388 174.53 400.057 174.903C400.279 174.903 400.391 175.028 400.613 175.152C400.613 175.276 406.282 180.87 419.51 188.453C432.738 196.036 468.864 205.483 486.649 202.127C489.539 201.754 491.985 199.641 493.208 196.782C501.322 177.762 471.643 118.715 471.309 118.094C471.087 117.721 471.198 117.099 471.532 116.851C471.865 116.602 472.421 116.727 472.643 117.099C472.643 117.099 472.643 117.224 472.754 117.224C473.977 119.71 503.101 177.762 494.653 197.652C493.208 201.133 490.317 203.619 486.872 204.116C483.981 204.862 480.869 205.11 477.868 204.986Z" fill="#231F20"/>
<path d="M290.567 125.18C290.567 125.18 280.229 94.1022 277.783 95.0967C275.338 96.0911 279.562 115.483 279.562 115.483C279.562 115.483 262.888 95.221 260.665 96.4641C258.442 97.7072 259.887 102.804 266.112 113.122C266.112 113.122 254.996 98.8259 253.217 101.809C251.439 104.793 262.332 117.597 262.332 117.597C262.332 117.597 251.884 105.29 250.438 107.776C248.993 110.262 260.332 123.066 260.332 123.066C260.332 123.066 249.772 109.268 248.993 113.494C248.215 117.721 269.335 145.691 275.338 153.273" fill="white"/>
<path d="M275.449 154.268C275.227 154.268 275.004 154.144 274.782 154.019C274.56 153.646 247.326 118.964 248.215 113.37C248.326 112.624 248.66 112.003 249.327 111.878C249.883 111.754 250.438 111.878 250.994 112.127C249.771 110.014 249.216 108.273 249.771 107.279C249.994 106.906 250.438 106.533 250.883 106.533C252.217 106.657 253.44 107.279 254.329 108.273C252.662 105.414 251.661 102.804 252.55 101.312C252.884 100.815 253.329 100.566 253.884 100.442C255.441 100.318 258.442 102.928 261.11 105.787C258.775 100.815 258.664 98.7016 258.998 97.4585C259.109 96.5884 259.665 95.9668 260.331 95.5939C261.999 94.5994 268.001 100.193 278.117 112.251C275.449 98.3287 276.338 94.7237 277.561 94.1022C278.561 93.7293 279.784 93.1077 285.898 109.268C288.788 116.851 291.345 124.682 291.456 124.682C291.678 125.18 291.456 125.677 291.011 125.925C290.566 126.174 290.122 125.925 289.9 125.428C285.453 112.251 280.006 98.0801 278.117 96.0911C277.561 97.8315 278.784 107.155 280.451 115.235C280.562 115.732 280.229 116.229 279.784 116.354C279.451 116.478 279.228 116.354 279.006 116.105C271.558 107.03 262.888 97.7072 261.11 97.3342C260.887 97.4585 260.776 97.7072 260.776 97.9558C260.443 99.4475 261.332 103.177 267.001 112.5C267.334 112.873 267.223 113.494 266.89 113.867C266.556 114.24 266.001 114.116 265.667 113.743C260.665 107.279 255.218 101.934 254.107 102.307C253.44 103.55 257.553 110.387 263.11 116.851V116.975C263.444 117.348 263.444 117.97 263.11 118.343C262.777 118.715 262.221 118.715 261.888 118.343L261.777 118.218C257.219 112.749 252.439 108.398 251.217 108.398C251.105 109.392 253.217 112.749 256.33 116.851C258.108 118.84 259.887 121.077 260.998 122.445C261.221 122.818 261.11 123.439 260.776 123.688C260.443 123.936 259.998 123.936 259.776 123.688C258.331 122.072 256.663 120.083 254.996 117.97C252.55 115.359 250.55 113.494 249.771 113.494C249.771 113.494 249.771 113.494 249.771 113.619C249.216 116.602 264.667 138.356 275.894 152.652C276.227 153.025 276.227 153.646 275.894 153.895C275.782 154.268 275.671 154.392 275.449 154.268Z" fill="#231F20"/>
<path d="M279.673 115.483C276.338 117.845 275.004 122.569 276.561 126.547Z" fill="white"/>
<path d="M276.449 127.541C276.116 127.541 275.782 127.293 275.671 126.92C274.115 122.445 275.56 117.348 279.117 114.738C279.562 114.489 280.007 114.738 280.229 115.11C280.451 115.483 280.34 116.105 280.006 116.354C277.005 118.467 275.894 122.693 277.228 126.298C277.45 126.796 277.228 127.293 276.783 127.541C276.783 127.541 276.783 127.541 276.672 127.541C276.672 127.541 276.561 127.541 276.449 127.541Z" fill="#231F20"/>
<path d="M425.846 435.829L426.957 448.881H481.425C475.978 444.282 470.198 440.18 464.084 436.699" fill="white"/>
<path d="M481.314 449.876H426.846C426.402 449.876 426.068 449.503 425.957 449.006L424.845 435.953C424.845 435.456 425.179 434.959 425.623 434.959C426.068 434.959 426.513 435.207 426.513 435.704L427.513 448.011H478.757C473.977 444.157 468.864 440.677 463.639 437.569C463.195 437.32 463.084 436.699 463.306 436.326C463.528 435.953 463.973 435.704 464.418 435.953C470.531 439.434 476.423 443.536 481.869 448.26C482.092 448.508 482.203 448.881 482.092 449.254C481.981 449.627 481.647 449.876 481.314 449.876Z" fill="#231F20"/>
<path d="M423.178 266.146C423.067 266.146 422.956 266.146 422.845 266.146L395.389 255.207C394.944 255.083 394.722 254.461 394.833 253.964C394.944 253.467 395.5 253.218 395.944 253.343L423.4 264.282C423.845 264.53 424.067 265.028 423.956 265.525C423.956 265.898 423.623 266.271 423.178 266.146Z" fill="white"/>
<path d="M356.928 236.188C356.483 236.188 356.039 235.691 356.15 235.193C356.15 234.696 356.483 234.323 356.928 234.323C369.155 232.956 371.823 216.298 371.823 216.174C371.934 215.677 372.379 215.304 372.935 215.552C373.379 215.677 373.602 216.05 373.602 216.547C373.046 219.779 372.045 222.887 370.6 225.87C367.266 231.961 362.597 235.691 356.928 236.188Z" fill="white"/>
<path d="M453.524 236.188H453.302C446.632 234.323 442.075 227.486 442.186 219.903C442.186 219.406 442.631 218.909 443.075 219.033C443.52 219.033 443.964 219.53 443.853 220.028C443.742 226.865 447.744 232.831 453.635 234.323C454.08 234.447 454.413 234.945 454.191 235.442C454.191 235.442 454.191 235.442 454.191 235.566C454.191 236.064 453.858 236.188 453.524 236.188Z" fill="white"/>
<path d="M412.284 45.8701C412.284 45.8701 406.06 53.2044 407.06 54.8204C408.06 56.4364 411.395 56.1878 411.395 56.1878" fill="white"/>
<path d="M410.728 57.058C409.506 57.058 407.282 56.8094 406.393 55.3177C405.282 53.453 408.727 48.8536 411.729 45.2486C412.062 44.8757 412.618 44.8757 412.951 45.2486C413.285 45.6215 413.285 46.2431 412.951 46.616C410.173 49.9724 407.727 53.5773 407.838 54.4475C408.283 55.1934 410.173 55.442 411.395 55.3177C411.84 55.1934 412.285 55.5663 412.396 56.0635C412.507 56.5608 412.173 57.058 411.729 57.1823H411.618C411.284 57.058 410.951 57.058 410.728 57.058Z" fill="#231F20"/>
<path d="M409.506 61.7818C409.506 61.7818 414.73 64.7652 417.064 59.1713Z" fill="white"/>
<path d="M412.507 63.5221C411.284 63.5221 410.173 63.1492 409.061 62.6519C408.616 62.4033 408.505 61.9061 408.727 61.4088C408.95 60.9116 409.394 60.7873 409.839 61.0359C411.062 61.6575 412.507 61.9061 413.841 61.5331C414.952 61.0359 415.842 60.0414 416.286 58.9226C416.509 58.4254 416.953 58.3011 417.398 58.4254C417.842 58.5497 417.954 59.1713 417.842 59.6685C417.175 61.4088 415.953 62.6519 414.397 63.2735C413.841 63.5221 413.174 63.6464 412.507 63.5221Z" fill="#231F20"/>
<path d="M421.799 47.777C422.165 46.758 421.955 45.7033 421.328 45.4214C420.702 45.1395 419.897 45.7371 419.53 46.7561C419.163 47.7751 419.374 48.8298 420.001 49.1117C420.627 49.3936 421.432 48.7961 421.799 47.777Z" fill="#231F20"/>
<path d="M408.962 45.3851C409.328 44.3661 409.118 43.3114 408.491 43.0295C407.865 42.7476 407.06 43.3452 406.693 44.3642C406.326 45.3833 406.537 46.4379 407.164 46.7198C407.79 47.0018 408.595 46.4042 408.962 45.3851Z" fill="#231F20"/>
<path d="M84.1461 411.464H61.581C61.2476 411.464 61.0253 411.34 60.9141 410.967C54.2446 398.412 46.3524 378.895 46.797 357.638C46.797 357.141 47.2417 356.768 47.6863 356.768C47.7974 356.768 47.9086 356.768 47.9086 356.768C54.3558 360 60.2471 364.351 65.4716 369.572C65.805 369.945 65.805 370.442 65.5827 370.939C65.2493 371.312 64.8046 371.312 64.36 371.064C59.5802 366.34 54.2446 362.238 48.4644 359.13C48.3532 379.144 55.6897 397.417 62.0257 409.599H84.1461C84.5907 409.599 85.0354 409.972 85.0354 410.594C85.0354 411.215 84.5907 411.464 84.1461 411.464Z" fill="#231F20"/>
<path d="M97.0404 411.464H72.808C72.4745 411.464 72.141 411.215 72.0299 410.843C68.0282 397.79 65.3604 384.24 64.1376 370.442C62.6926 353.039 64.1376 337.127 68.2505 322.956C68.3617 322.707 68.584 322.459 68.8063 322.334C69.0286 322.21 69.3621 322.334 69.5844 322.459C69.8067 322.707 92.5941 343.467 98.152 375.787C98.2632 376.285 97.9297 376.782 97.485 376.906C97.0404 377.03 96.7069 376.657 96.5958 376.16C91.816 348.191 73.9195 329.171 69.5844 324.82C65.805 338.494 64.5823 353.66 65.9162 370.318C67.0278 383.743 69.5844 396.92 73.4749 409.599H97.1516C97.5962 409.599 98.0408 409.972 98.0408 410.594C98.0408 411.215 97.485 411.464 97.0404 411.464Z" fill="#231F20"/>
<path d="M109.268 411.464H87.8143C87.3697 411.464 87.0362 411.091 86.9251 410.594C86.7027 403.881 88.0366 392.693 95.1507 378.273C95.5954 377.279 96.04 376.409 96.4847 375.539C109.046 351.796 120.606 351.796 121.051 351.796C121.384 351.796 121.718 352.169 121.829 352.541C126.72 377.776 116.382 400.028 109.824 411.215C109.824 411.34 109.601 411.464 109.268 411.464ZM88.5924 409.599H108.823C115.159 398.785 124.83 377.528 120.495 353.66C117.938 354.033 108.379 356.892 98.0409 376.533C97.5962 377.403 97.1516 378.273 96.707 379.268C90.0375 392.693 88.5924 403.011 88.5924 409.599Z" fill="#231F20"/>
<path d="M105.377 448.633H63.2484L56.4678 410.594H112.158L105.377 448.633Z" fill="#231F20"/>
</g>
<defs>
<clipPath id="clip0_11_18">
<rect width="527.5" height="450" fill="white" transform="translate(0.5)"/>
</clipPath>
</defs>
</svg>
